<svg width="30" height="30" viewBox="0 0 30 30" fill="none" xmlns="http://www.w3.org/2000/svg">
<mask id="path-1-inside-1_7_31" fill="white">
<path d="M17.5045 2.49557L21.2545 6.24558L21.2488 6.24933L21.25 6.25001V16.25H20V7.49933L16.25 7.50001V3.74933H5V22.4994L15.0344 22.5004C15.0116 22.2951 15 22.0864 15 21.875C15 18.7684 17.5184 16.25 20.625 16.25C23.7316 16.25 26.25 18.7684 26.25 21.875C26.25 24.9816 23.7316 27.5 20.625 27.5C18.1761 27.5 16.0927 25.9351 15.3204 23.7509L3.75 23.75V2.50001H17.5L17.5045 2.49557ZM20.625 17.5C18.2088 17.5 16.25 19.4588 16.25 21.875C16.25 24.2913 18.2088 26.25 20.625 26.25C23.0412 26.25 25 24.2913 25 21.875C25 19.4588 23.0412 17.5 20.625 17.5ZM21.25 18.75V21.2494L23.75 21.25V22.5L21.25 22.4994V25H20V22.4994L17.5 22.5V21.25L20 21.2494V18.75H21.25ZM13.75 17.5V18.75H7.5V17.5H13.75ZM17.5 13.75V15H7.5V13.75H17.5ZM17.5 10V11.25H7.5V10H17.5ZM17.5 4.25933V6.24933H19.49L17.5 4.25933Z"/>
</mask>
<path d="M17.5045 2.49557L21.2545 6.24558L21.2488 6.24933L21.25 6.25001V16.25H20V7.49933L16.25 7.50001V3.74933H5V22.4994L15.0344 22.5004C15.0116 22.2951 15 22.0864 15 21.875C15 18.7684 17.5184 16.25 20.625 16.25C23.7316 16.25 26.25 18.7684 26.25 21.875C26.25 24.9816 23.7316 27.5 20.625 27.5C18.1761 27.5 16.0927 25.9351 15.3204 23.7509L3.75 23.75V2.50001H17.5L17.5045 2.49557ZM20.625 17.5C18.2088 17.5 16.25 19.4588 16.25 21.875C16.25 24.2913 18.2088 26.25 20.625 26.25C23.0412 26.25 25 24.2913 25 21.875C25 19.4588 23.0412 17.5 20.625 17.5ZM21.25 18.75V21.2494L23.75 21.25V22.5L21.25 22.4994V25H20V22.4994L17.5 22.5V21.25L20 21.2494V18.75H21.25ZM13.75 17.5V18.75H7.5V17.5H13.75ZM17.5 13.75V15H7.5V13.75H17.5ZM17.5 10V11.25H7.5V10H17.5ZM17.5 4.25933V6.24933H19.49L17.5 4.25933Z" fill="white"/>
<path d="M17.5045 2.49557L19.6258 0.374255L17.5193 -1.73226L15.3981 0.359453L17.5045 2.49557ZM21.2545 6.24558L22.8937 8.75812L25.9898 6.7382L23.3758 4.12426L21.2545 6.24558ZM21.2488 6.24933L19.6095 3.73678L15.4227 6.46838L19.8028 8.87787L21.2488 6.24933ZM21.25 6.25001H24.25V4.47635L22.6959 3.62147L21.25 6.25001ZM21.25 16.25V19.25H24.25V16.25H21.25ZM20 16.25H17V19.25H20V16.25ZM20 7.49933H23V4.49878L19.9995 4.49933L20 7.49933ZM16.25 7.50001H13.25V10.5006L16.2506 10.5L16.25 7.50001ZM16.25 3.74933H19.25V0.749325H16.25V3.74933ZM5 3.74933V0.749325H2V3.74933H5ZM5 22.4994H2V25.4991L4.9997 25.4994L5 22.4994ZM15.0344 22.5004L15.0341 25.5004L18.3853 25.5007L18.0161 22.1699L15.0344 22.5004ZM15.3204 23.7509L18.1488 22.7507L17.4416 20.751L15.3206 20.7509L15.3204 23.7509ZM3.75 23.75H0.75V26.7498L3.74977 26.75L3.75 23.75ZM3.75 2.50001V-0.499987H0.75V2.50001H3.75ZM17.5 2.50001V5.50001H18.7304L19.6064 4.63613L17.5 2.50001ZM21.25 18.75H24.25V15.75H21.25V18.75ZM21.25 21.2494H18.25V24.2486L21.2493 24.2494L21.25 21.2494ZM23.75 21.25H26.75V18.2508L23.7507 18.25L23.75 21.25ZM23.75 22.5L23.7493 25.5L26.75 25.5008V22.5H23.75ZM21.25 22.4994L21.2507 19.4994L18.25 19.4986V22.4994H21.25ZM21.25 25V28H24.25V25H21.25ZM20 25H17V28H20V25ZM20 22.4994H23V19.4986L19.9993 19.4994L20 22.4994ZM17.5 22.5H14.5V25.5008L17.5007 25.5L17.5 22.5ZM17.5 21.25L17.4993 18.25L14.5 18.2508V21.25H17.5ZM20 21.2494L20.0007 24.2494L23 24.2486V21.2494H20ZM20 18.75V15.75H17V18.75H20ZM13.75 17.5H16.75V14.5H13.75V17.5ZM13.75 18.75V21.75H16.75V18.75H13.75ZM7.5 18.75H4.5V21.75H7.5V18.75ZM7.5 17.5V14.5H4.5V17.5H7.5ZM17.5 13.75H20.5V10.75H17.5V13.75ZM17.5 15V18H20.5V15H17.5ZM7.5 15H4.5V18H7.5V15ZM7.5 13.75V10.75H4.5V13.75H7.5ZM17.5 10H20.5V7.00001H17.5V10ZM17.5 11.25V14.25H20.5V11.25H17.5ZM7.5 11.25H4.5V14.25H7.5V11.25ZM7.5 10V7.00001H4.5V10H7.5ZM17.5 4.25933L19.6213 2.13801L14.5 -2.98332V4.25933H17.5ZM17.5 6.24933H14.5V9.24933H17.5V6.24933ZM19.49 6.24933V9.24933H26.7326L21.6113 4.12801L19.49 6.24933ZM15.3832 4.61689L19.1332 8.3669L23.3758 4.12426L19.6258 0.374255L15.3832 4.61689ZM19.6153 3.73303L19.6095 3.73678L22.888 8.76187L22.8937 8.75812L19.6153 3.73303ZM19.8028 8.87787L19.8041 8.87855L22.6959 3.62147L22.6947 3.62078L19.8028 8.87787ZM18.25 6.25001V16.25H24.25V6.25001H18.25ZM21.25 13.25H20V19.25H21.25V13.25ZM23 16.25V7.49933H17V16.25H23ZM19.9995 4.49933L16.2494 4.50001L16.2506 10.5L20.0005 10.4993L19.9995 4.49933ZM19.25 7.50001V3.74933H13.25V7.50001H19.25ZM16.25 0.749325H5V6.74933H16.25V0.749325ZM2 3.74933V22.4994H8V3.74933H2ZM4.9997 25.4994L15.0341 25.5004L15.0347 19.5004L5.0003 19.4994L4.9997 25.4994ZM18.0161 22.1699C18.0056 22.0748 18 21.9764 18 21.875H12C12 22.1964 12.0177 22.5155 12.0526 22.8309L18.0161 22.1699ZM18 21.875C18 20.4252 19.1752 19.25 20.625 19.25V13.25C15.8615 13.25 12 17.1115 12 21.875H18ZM20.625 19.25C22.0748 19.25 23.25 20.4252 23.25 21.875H29.25C29.25 17.1115 25.3885 13.25 20.625 13.25V19.25ZM23.25 21.875C23.25 23.3248 22.0748 24.5 20.625 24.5V30.5C25.3885 30.5 29.25 26.6385 29.25 21.875H23.25ZM20.625 24.5C19.4868 24.5 18.5106 23.774 18.1488 22.7507L12.492 24.751C13.6749 28.0963 16.8654 30.5 20.625 30.5V24.5ZM15.3206 20.7509L3.75023 20.75L3.74977 26.75L15.3201 26.7509L15.3206 20.7509ZM6.75 23.75V2.50001H0.75V23.75H6.75ZM3.75 5.50001H17.5V-0.499987H3.75V5.50001ZM19.6064 4.63613L19.6109 4.6317L15.3981 0.359453L15.3936 0.363891L19.6064 4.63613ZM20.625 14.5C16.5519 14.5 13.25 17.8019 13.25 21.875H19.25C19.25 21.1156 19.8656 20.5 20.625 20.5V14.5ZM13.25 21.875C13.25 25.9481 16.5519 29.25 20.625 29.25V23.25C19.8656 23.25 19.25 22.6344 19.25 21.875H13.25ZM20.625 29.25C24.6981 29.25 28 25.9481 28 21.875H22C22 22.6344 21.3844 23.25 20.625 23.25V29.25ZM28 21.875C28 17.8019 24.6981 14.5 20.625 14.5V20.5C21.3844 20.5 22 21.1156 22 21.875H28ZM18.25 18.75V21.2494H24.25V18.75H18.25ZM21.2493 24.2494L23.7493 24.25L23.7507 18.25L21.2507 18.2494L21.2493 24.2494ZM20.75 21.25V22.5H26.75V21.25H20.75ZM23.7507 19.5L21.2507 19.4994L21.2493 25.4994L23.7493 25.5L23.7507 19.5ZM18.25 22.4994V25H24.25V22.4994H18.25ZM21.25 22H20V28H21.25V22ZM23 25V22.4994H17V25H23ZM19.9993 19.4994L17.4993 19.5L17.5007 25.5L20.0007 25.4994L19.9993 19.4994ZM20.5 22.5V21.25H14.5V22.5H20.5ZM17.5007 24.25L20.0007 24.2494L19.9993 18.2494L17.4993 18.25L17.5007 24.25ZM23 21.2494V18.75H17V21.2494H23ZM20 21.75H21.25V15.75H20V21.75ZM10.75 17.5V18.75H16.75V17.5H10.75ZM13.75 15.75H7.5V21.75H13.75V15.75ZM10.5 18.75V17.5H4.5V18.75H10.5ZM7.5 20.5H13.75V14.5H7.5V20.5ZM14.5 13.75V15H20.5V13.75H14.5ZM17.5 12H7.5V18H17.5V12ZM10.5 15V13.75H4.5V15H10.5ZM7.5 16.75H17.5V10.75H7.5V16.75ZM14.5 10V11.25H20.5V10H14.5ZM17.5 8.25001H7.5V14.25H17.5V8.25001ZM10.5 11.25V10H4.5V11.25H10.5ZM7.5 13H17.5V7.00001H7.5V13ZM14.5 4.25933V6.24933H20.5V4.25933H14.5ZM17.5 9.24933H19.49V3.24933H17.5V9.24933ZM21.6113 4.12801L19.6213 2.13801L15.3787 6.38065L17.3687 8.37065L21.6113 4.12801Z" fill="white" mask="url(#path-1-inside-1_7_31)"/>
</svg>
