<svg width="20" height="20" viewBox="0 0 20 20" fill="none" xmlns="http://www.w3.org/2000/svg">
<rect width="20" height="20" fill="white"/>
<path d="M7.50008 13.3333H9.16675V6.66667H7.50008V13.3333ZM10.0001 1.66667C5.40008 1.66667 1.66675 5.40001 1.66675 10C1.66675 14.6 5.40008 18.3333 10.0001 18.3333C14.6001 18.3333 18.3334 14.6 18.3334 10C18.3334 5.40001 14.6001 1.66667 10.0001 1.66667ZM10.0001 16.6667C6.32508 16.6667 3.33341 13.675 3.33341 10C3.33341 6.32501 6.32508 3.33334 10.0001 3.33334C13.6751 3.33334 16.6667 6.32501 16.6667 10C16.6667 13.675 13.6751 16.6667 10.0001 16.6667ZM10.8334 13.3333H12.5001V6.66667H10.8334V13.3333Z" fill="black" fill-opacity="0.61"/>
</svg>
